<svg width="212" height="209" viewBox="0 0 212 209" fill="none" xmlns="http://www.w3.org/2000/svg">
<path d="M73.452 61.6856C68.3825 65.6733 63.9591 70.4403 60.3568 75.801L78.9844 162.653C88.8693 168.897 100.605 172.425 113.112 172.189C114.551 172.162 115.976 172.081 117.387 171.957L161.565 146.967C165.897 141.039 169.194 134.313 171.194 127.058L73.452 61.6856Z" fill="#6354B2"/>
<path d="M111.14 86.8444L113.142 172.133C114.579 172.106 116.003 172.026 117.414 171.902L161.569 146.92C165.9 140.994 169.195 134.269 171.194 127.017L111.14 86.8444Z" fill="#463B85"/>
<path d="M110.251 48.5917C96.356 48.854 83.6285 53.7177 73.4831 61.6991L101.117 94.7951C101.936 95.7757 103.096 96.409 104.362 96.5656L122.186 98.7714L122.38 107.051C122.431 109.207 123.854 111.095 125.914 111.738L142.345 116.872L145.065 126.782C145.745 129.261 148.186 130.833 150.717 130.421L171.245 127.086C172.808 121.417 173.584 115.427 173.438 109.244C172.639 75.1575 144.292 47.9489 110.251 48.5917Z" fill="#00E7F0"/>
<path d="M110.288 48.5909L111.433 97.4113L122.216 98.746L122.41 107.021C122.461 109.176 123.883 111.064 125.941 111.707L142.363 116.838L145.081 126.742C145.761 129.22 148.201 130.792 150.73 130.381L171.246 127.047C172.808 121.38 173.583 115.394 173.438 109.213C172.639 75.1439 144.309 47.9485 110.288 48.5909Z" fill="#00B6BE"/>
<path d="M92.1618 147.681L89.9794 137.936L96.4746 137.813C99.2362 137.761 101.423 135.477 101.358 132.712L100.988 116.943C100.957 115.615 100.4 114.352 99.4408 113.431L60.3179 75.863C53.4743 86.0512 49.5976 98.3848 49.9076 111.596C50.4131 133.142 61.9302 151.934 78.9307 162.677L90.5742 152.539C91.9541 151.337 92.5634 149.473 92.1618 147.681Z" fill="#00E7F0"/>
<path d="M138.978 127.537C138.011 124.012 133.726 122.657 130.932 124.992L115.472 137.911C114.173 138.996 113.514 140.669 113.723 142.354L117.374 171.901C135.553 170.302 151.397 160.803 161.552 146.91C152.954 143.075 145.341 139.524 141.812 137.866L138.978 127.537Z" fill="#00B6BE"/>
<path d="M6.33737 60.0841C6.65949 73.8107 12.417 86.8722 22.3434 96.3952C32.2697 105.918 45.5518 111.123 59.2677 110.864C72.9835 110.605 86.0097 104.904 95.4805 95.0144C104.951 85.1251 110.091 71.8579 109.769 58.1313C109.447 44.4047 103.689 31.3432 93.7628 21.8202C83.8365 12.2971 70.5544 7.09262 56.8385 7.35158C43.1227 7.61054 30.0965 13.3118 20.6257 23.201C11.1549 33.0903 6.01525 46.3575 6.33737 60.0841Z" fill="#FFF587"/>
<path d="M56.8999 7.35083L59.3268 110.807C87.8553 110.268 110.439 86.6716 109.769 58.1031C109.099 29.5346 85.4284 6.81199 56.8999 7.35083Z" fill="#FFCD00"/>
<path d="M88.7081 76.6997L75.0503 63.5966C74.0899 62.6751 72.8044 62.1713 71.4773 62.1963L56.465 62.4798L56.0732 45.786L64.4134 45.6285C67.177 45.5763 69.3649 43.2917 69.3 40.5259C69.2351 37.7601 66.942 35.5601 64.1784 35.6122L55.8382 35.7697L55.6423 27.4228C55.5774 24.657 53.2842 22.457 50.5206 22.5092C47.757 22.5613 45.5691 24.846 45.634 27.6118L45.9985 43.144C34.6467 45.6858 26.274 55.9625 26.5577 68.0548C26.8817 81.8623 38.3696 92.8836 52.166 92.6231C62.4118 92.4297 71.0893 86.0667 74.7446 77.1494L81.7971 83.9158C83.7973 85.8347 86.9656 85.7749 88.8739 83.7822C90.7827 81.7894 90.7082 78.6183 88.7081 76.6997ZM51.9309 82.6068C43.6531 82.7631 36.7604 76.1503 36.566 67.8659C36.4128 61.3366 40.4655 55.6889 46.2418 53.5115L46.5742 67.6769C46.6391 70.4427 48.9323 72.6427 51.6959 72.5905L65.8415 72.3235C63.9133 78.1909 58.454 82.4837 51.9309 82.6068Z" fill="#6354B2"/>
<path d="M75.0474 63.5572C74.0868 62.6356 72.801 62.1316 71.4736 62.1567L58.1267 62.4087L58.3618 72.427L65.8369 72.2858C64.6168 75.9982 61.9821 79.0788 58.56 80.8737L58.8107 91.5562C66.0638 89.3933 71.9103 84.0207 74.742 77.1127L81.796 83.8805C83.7966 85.7998 86.9656 85.74 88.8744 83.7468C90.7832 81.7537 90.7088 78.5822 88.7082 76.6629L75.0474 63.5572Z" fill="#463B85"/>
<path d="M69.3313 40.5365C69.2664 37.7695 66.9722 35.5686 64.2075 35.6208L57.5325 35.7468L57.7676 45.7672L64.4426 45.6412C67.2074 45.589 69.3962 43.3035 69.3313 40.5365Z" fill="#463B85"/>
<path d="M59.3969 115.867C28.1213 116.461 2.07622 91.4786 1.33829 60.1786C0.600355 28.8786 25.4448 2.93121 56.7204 2.33786C87.996 1.74451 114.041 26.7264 114.779 58.0264C115.517 89.3265 90.6726 115.274 59.3969 115.867ZM56.9565 12.3552C31.2001 12.8438 10.7401 34.2122 11.3478 59.9887C11.9555 85.7652 33.4044 106.339 59.1608 105.85C84.9172 105.361 105.377 83.9928 104.77 58.2163C104.162 32.4398 82.7129 11.8665 56.9565 12.3552Z" fill="#6354B2"/>
<path d="M59.2157 105.798C84.9422 105.312 105.381 83.9573 104.776 58.1948C104.172 32.4323 82.7501 11.8681 57.0237 12.354L56.7888 2.34216C88.0281 1.75212 114.04 26.7229 114.774 58.006C115.508 89.289 90.6898 115.22 59.4506 115.81L59.2157 105.798Z" fill="#463B85"/>
<path d="M35.8197 120.186L50.0629 117.237L50.6865 120.248L38.9262 122.684L40.1908 128.79L37.708 129.304L35.8197 120.186Z" fill="white"/>
<path d="M41.3651 139.97C41.0725 139.338 40.9212 138.725 40.9114 138.129C40.9058 137.532 41.0533 136.988 41.3538 136.5C41.6606 136.013 42.1405 135.618 42.7935 135.316C43.3434 135.061 43.852 134.948 44.3193 134.977C44.7866 135.005 45.2148 135.141 45.6037 135.383C45.9926 135.626 46.3476 135.941 46.6687 136.33C46.9917 136.723 47.2903 137.154 47.5645 137.621C47.8915 138.169 48.1623 138.607 48.3771 138.936C48.5962 139.262 48.7963 139.48 48.9773 139.589C49.1584 139.698 49.3542 139.704 49.5647 139.607L49.6033 139.589C50.0115 139.4 50.2675 139.124 50.3714 138.763C50.4774 138.406 50.4218 137.993 50.2048 137.525C49.9759 137.031 49.6842 136.689 49.3297 136.498C48.9796 136.306 48.6193 136.238 48.249 136.295L47.2787 133.66C47.9398 133.51 48.5771 133.523 49.1905 133.698C49.8082 133.871 50.3735 134.201 50.8865 134.689C51.4058 135.179 51.8486 135.819 52.2149 136.609C52.4697 137.159 52.6491 137.715 52.7532 138.278C52.8592 138.844 52.8675 139.386 52.778 139.902C52.6905 140.423 52.4869 140.896 52.1671 141.32C51.8516 141.743 51.3996 142.091 50.811 142.364L44.135 145.457L42.9286 142.854L44.3012 142.218L44.2654 142.141C43.8824 142.125 43.511 142.039 43.1513 141.882C42.7959 141.723 42.465 141.488 42.1587 141.176C41.8566 140.862 41.5921 140.46 41.3651 139.97ZM43.624 139.878C43.8111 140.282 44.0558 140.602 44.3581 140.837C44.6647 141.071 44.9963 141.212 45.3528 141.261C45.7094 141.31 46.0617 141.253 46.4096 141.092L47.46 140.605C47.3643 140.545 47.258 140.451 47.1411 140.323C47.0305 140.196 46.913 140.05 46.7887 139.883C46.6688 139.714 46.5509 139.545 46.4353 139.374C46.3239 139.201 46.2226 139.044 46.1315 138.904C45.9349 138.604 45.7293 138.357 45.5147 138.164C45.3001 137.972 45.0739 137.849 44.8361 137.798C44.6025 137.744 44.3569 137.777 44.0991 137.897C43.7253 138.07 43.5024 138.338 43.4302 138.7C43.3643 139.064 43.4289 139.457 43.624 139.878Z" fill="white"/>
<path d="M48.3837 152.491L49.8047 151.38L58.3035 151.514L58.365 151.465L55.1887 147.404L57.0909 145.916L62.5117 152.848L60.9619 154.06L52.7931 154.083L52.7316 154.131L55.9342 158.226L54.032 159.714L48.3837 152.491Z" fill="white"/>
<path d="M63.6433 169.025C62.7689 168.321 62.1587 167.539 61.8127 166.677C61.4734 165.815 61.3966 164.921 61.5825 163.994C61.7713 163.065 62.2262 162.152 62.9474 161.255C63.6507 160.381 64.4377 159.75 65.3083 159.362C66.1789 158.975 67.0707 158.845 67.9836 158.971C68.9002 159.101 69.7754 159.501 70.6092 160.172C71.17 160.623 71.6194 161.133 71.9573 161.703C72.3018 162.271 72.511 162.88 72.5847 163.529C72.6621 164.181 72.5841 164.859 72.3508 165.565C72.1204 166.267 71.7144 166.979 71.1328 167.702L70.612 168.35L63.4341 162.576L64.6093 161.115L69.5679 165.104C69.8409 164.764 70.009 164.404 70.0721 164.024C70.1353 163.643 70.0952 163.273 69.952 162.915C69.8154 162.556 69.5755 162.239 69.2324 161.963C68.8745 161.675 68.4905 161.503 68.0802 161.446C67.6766 161.389 67.2861 161.436 66.9085 161.588C66.534 161.737 66.2098 161.977 65.9361 162.31L64.8188 163.699C64.4805 164.12 64.2656 164.545 64.1743 164.976C64.0866 165.41 64.1199 165.826 64.2741 166.223C64.4283 166.621 64.7029 166.978 65.0976 167.296C65.3596 167.507 65.6291 167.663 65.9061 167.764C66.1831 167.865 66.4585 167.904 66.7321 167.881C67.0058 167.858 67.2693 167.773 67.5226 167.624L69.5873 169.522C69.0552 169.957 68.4603 170.232 67.8026 170.347C67.1516 170.461 66.4692 170.41 65.7555 170.195C65.0484 169.979 64.3443 169.588 63.6433 169.025Z" fill="white"/>
<path d="M74.0884 175.894L79.0088 166.158L81.6268 167.481L80.7683 169.18L80.8697 169.231C81.3526 168.716 81.8811 168.41 82.4554 168.313C83.0318 168.212 83.5925 168.299 84.1377 168.575C84.2729 168.643 84.4144 168.725 84.5622 168.821C84.7101 168.917 84.8357 169.01 84.939 169.099L83.7281 171.495C83.6206 171.393 83.4623 171.27 83.2533 171.128C83.0443 170.985 82.8468 170.867 82.6608 170.773C82.2636 170.572 81.8648 170.479 81.4646 170.494C81.0707 170.507 80.706 170.62 80.3705 170.833C80.0392 171.047 79.7732 171.353 79.5725 171.75L76.7887 177.259L74.0884 175.894Z" fill="white"/>
<path d="M96.8007 188.501L98.5454 173.603L101.508 173.95L101.295 175.769L101.429 175.785C101.595 175.509 101.82 175.235 102.105 174.963C102.394 174.687 102.753 174.472 103.181 174.317C103.615 174.158 104.135 174.114 104.741 174.185C105.531 174.278 106.236 174.57 106.855 175.062C107.475 175.549 107.937 176.23 108.239 177.105C108.543 177.975 108.622 179.03 108.476 180.272C108.335 181.48 108.02 182.478 107.532 183.265C107.05 184.047 106.45 184.613 105.732 184.963C105.019 185.309 104.251 185.433 103.428 185.337C102.845 185.269 102.36 185.114 101.974 184.873C101.592 184.633 101.289 184.352 101.064 184.03C100.84 183.704 100.678 183.382 100.577 183.065L100.485 183.054L99.8058 188.853L96.8007 188.501ZM100.853 179.365C100.777 180.009 100.801 180.581 100.923 181.082C101.046 181.582 101.261 181.987 101.568 182.294C101.876 182.597 102.272 182.777 102.756 182.834C103.245 182.891 103.675 182.806 104.045 182.577C104.415 182.344 104.715 181.998 104.946 181.539C105.181 181.075 105.336 180.528 105.409 179.898C105.483 179.273 105.46 178.712 105.342 178.217C105.223 177.722 105.011 177.32 104.703 177.012C104.396 176.705 103.996 176.522 103.502 176.464C103.013 176.407 102.584 176.488 102.215 176.707C101.851 176.926 101.552 177.263 101.317 177.717C101.083 178.171 100.928 178.72 100.853 179.365Z" fill="white"/>
<path d="M118.866 185.429C118.175 185.512 117.545 185.467 116.976 185.292C116.406 185.113 115.934 184.805 115.562 184.368C115.194 183.926 114.967 183.347 114.881 182.633C114.809 182.031 114.858 181.512 115.03 181.077C115.201 180.641 115.463 180.276 115.813 179.981C116.164 179.686 116.574 179.446 117.043 179.26C117.517 179.075 118.018 178.924 118.548 178.807C119.17 178.666 119.67 178.543 120.049 178.44C120.427 178.333 120.696 178.21 120.856 178.071C121.015 177.933 121.081 177.749 121.054 177.518L121.049 177.476C120.995 177.029 120.812 176.701 120.501 176.49C120.194 176.279 119.784 176.205 119.272 176.266C118.731 176.332 118.316 176.503 118.025 176.781C117.733 177.055 117.558 177.377 117.497 177.746L114.692 177.855C114.754 177.18 114.962 176.578 115.318 176.049C115.674 175.515 116.162 175.079 116.785 174.742C117.411 174.399 118.157 174.176 119.022 174.072C119.623 173.999 120.208 174 120.775 174.075C121.346 174.149 121.864 174.309 122.327 174.553C122.796 174.797 123.182 175.137 123.488 175.572C123.792 176.003 123.983 176.54 124.061 177.184L124.941 184.49L122.092 184.833L121.911 183.331L121.827 183.341C121.694 183.701 121.497 184.027 121.237 184.321C120.976 184.61 120.65 184.852 120.258 185.047C119.866 185.237 119.402 185.364 118.866 185.429ZM119.477 183.252C119.919 183.199 120.298 183.065 120.616 182.85C120.933 182.631 121.17 182.359 121.326 182.035C121.483 181.711 121.538 181.359 121.492 180.978L121.353 179.828C121.267 179.901 121.144 179.973 120.986 180.044C120.832 180.111 120.656 180.177 120.459 180.244C120.262 180.306 120.064 180.365 119.866 180.423C119.667 180.475 119.487 180.523 119.325 180.566C118.979 180.661 118.681 180.78 118.431 180.925C118.181 181.069 117.995 181.247 117.873 181.457C117.75 181.662 117.705 181.906 117.739 182.188C117.788 182.597 117.974 182.892 118.296 183.073C118.623 183.248 119.016 183.308 119.477 183.252Z" fill="white"/>
<path d="M132.927 182.539L129.399 172.217L132.174 171.268L132.79 173.069L132.897 173.032C132.867 172.327 133.017 171.736 133.349 171.257C133.679 170.774 134.133 170.433 134.711 170.236C134.854 170.187 135.012 170.143 135.184 170.104C135.356 170.065 135.51 170.04 135.646 170.029L136.514 172.569C136.366 172.575 136.168 172.602 135.92 172.652C135.672 172.702 135.449 172.761 135.252 172.828C134.831 172.972 134.486 173.192 134.217 173.489C133.951 173.781 133.777 174.12 133.695 174.509C133.617 174.896 133.65 175.3 133.794 175.721L135.79 181.561L132.927 182.539Z" fill="white"/>
<path d="M149.159 175.814C148.562 176.171 147.967 176.385 147.376 176.458C146.782 176.526 146.227 176.436 145.709 176.188C145.193 175.934 144.75 175.498 144.381 174.88C144.07 174.36 143.904 173.866 143.884 173.398C143.864 172.931 143.954 172.491 144.154 172.078C144.355 171.666 144.631 171.28 144.984 170.92C145.341 170.558 145.738 170.216 146.175 169.894C146.685 169.512 147.093 169.196 147.397 168.948C147.698 168.696 147.894 168.475 147.984 168.283C148.073 168.092 148.058 167.896 147.939 167.697L147.918 167.661C147.687 167.274 147.386 167.049 147.016 166.983C146.65 166.915 146.245 167.014 145.802 167.278C145.335 167.558 145.025 167.884 144.873 168.256C144.718 168.625 144.688 168.99 144.783 169.352L142.265 170.593C142.047 169.951 141.992 169.316 142.102 168.688C142.21 168.055 142.479 167.459 142.91 166.897C143.343 166.33 143.933 165.822 144.681 165.375C145.201 165.064 145.736 164.828 146.284 164.665C146.837 164.5 147.374 164.436 147.897 164.47C148.424 164.503 148.915 164.656 149.371 164.93C149.825 165.199 150.218 165.612 150.551 166.169L154.326 172.484L151.864 173.957L151.087 172.658L151.014 172.702C151.039 173.085 150.992 173.463 150.874 173.837C150.753 174.207 150.553 174.561 150.275 174.898C149.994 175.231 149.622 175.537 149.159 175.814ZM148.831 173.577C149.213 173.348 149.506 173.072 149.708 172.746C149.909 172.417 150.014 172.072 150.026 171.713C150.037 171.353 149.944 171.008 149.747 170.679L149.153 169.686C149.103 169.787 149.021 169.903 148.905 170.032C148.791 170.156 148.658 170.288 148.505 170.429C148.35 170.566 148.193 170.701 148.036 170.834C147.875 170.963 147.73 171.08 147.6 171.185C147.322 171.412 147.098 171.642 146.929 171.876C146.76 172.109 146.662 172.347 146.636 172.589C146.607 172.827 146.665 173.068 146.811 173.312C147.022 173.665 147.312 173.859 147.68 173.893C148.049 173.92 148.433 173.815 148.831 173.577Z" fill="white"/>
<path d="M158.533 153.394L156.52 151.852L163.784 142.368L165.796 143.91L163.089 147.446L172.624 154.748L170.775 157.161L161.24 149.859L158.533 153.394Z" fill="white"/>
<path d="M181.527 139.714C181.094 140.729 180.504 141.514 179.757 142.07C179.007 142.62 178.159 142.93 177.213 143C176.262 143.067 175.273 142.882 174.246 142.443C173.209 142 172.389 141.413 171.785 140.682C171.177 139.948 170.814 139.122 170.697 138.202C170.578 137.275 170.735 136.305 171.168 135.29C171.601 134.276 172.193 133.494 172.943 132.944C173.69 132.387 174.539 132.075 175.489 132.008C176.435 131.938 177.427 132.125 178.463 132.567C179.491 133.006 180.309 133.592 180.917 134.326C181.521 135.057 181.883 135.886 182.002 136.812C182.119 137.732 181.961 138.7 181.527 139.714ZM179.377 138.781C179.575 138.319 179.608 137.878 179.479 137.457C179.346 137.035 179.084 136.647 178.693 136.295C178.305 135.939 177.819 135.636 177.236 135.387C176.652 135.138 176.097 134.996 175.571 134.962C175.047 134.923 174.586 135.002 174.189 135.198C173.791 135.394 173.494 135.722 173.296 136.184C173.098 136.65 173.063 137.098 173.193 137.53C173.325 137.957 173.585 138.348 173.973 138.705C174.363 139.057 174.85 139.357 175.434 139.606C176.017 139.856 176.571 139.999 177.095 140.038C177.621 140.072 178.084 139.989 178.483 139.789C178.88 139.583 179.178 139.247 179.377 138.781Z" fill="white"/>
<path d="M186.591 122.821C186.459 123.639 186.129 124.346 185.601 124.942C185.069 125.532 184.36 125.955 183.475 126.21C182.585 126.459 181.54 126.487 180.339 126.292C179.105 126.093 178.111 125.728 177.357 125.199C176.599 124.668 176.07 124.041 175.77 123.316C175.466 122.586 175.378 121.826 175.505 121.036C175.603 120.433 175.787 119.947 176.058 119.578C176.324 119.204 176.63 118.918 176.974 118.719C177.314 118.515 177.639 118.371 177.95 118.287L177.965 118.196L172.566 117.323L173.048 114.343L187.407 116.665L186.931 119.61L185.206 119.331L185.185 119.457C185.462 119.646 185.727 119.892 185.98 120.197C186.228 120.496 186.416 120.865 186.542 121.303C186.668 121.736 186.685 122.242 186.591 122.821ZM184.367 121.49C184.445 121.009 184.38 120.581 184.172 120.207C183.96 119.827 183.63 119.51 183.182 119.255C182.735 118.996 182.191 118.815 181.551 118.711C180.91 118.607 180.34 118.606 179.839 118.708C179.338 118.809 178.932 119.007 178.62 119.302C178.309 119.597 178.114 119.985 178.036 120.466C177.957 120.957 178.023 121.392 178.235 121.772C178.447 122.152 178.775 122.466 179.219 122.715C179.664 122.965 180.196 123.14 180.818 123.24C181.444 123.342 182.012 123.345 182.522 123.25C183.027 123.149 183.442 122.955 183.767 122.667C184.088 122.373 184.288 121.981 184.367 121.49Z" fill="white"/>
<path d="M187.577 103.406C187.669 104.505 187.514 105.475 187.114 106.316C186.708 107.153 186.103 107.823 185.299 108.327C184.491 108.832 183.53 109.13 182.416 109.222C181.293 109.316 180.294 109.18 179.418 108.816C178.537 108.452 177.83 107.891 177.296 107.132C176.758 106.369 176.443 105.438 176.352 104.338C176.26 103.239 176.417 102.271 176.823 101.434C177.224 100.593 177.828 99.9208 178.637 99.4165C179.441 98.9126 180.404 98.614 181.527 98.5207C182.641 98.4281 183.638 98.5639 184.518 98.9278C185.394 99.2921 186.102 99.8558 186.64 100.619C187.174 101.377 187.486 102.306 187.577 103.406ZM185.24 103.586C185.199 103.086 185.023 102.68 184.712 102.368C184.396 102.057 183.983 101.837 183.474 101.708C182.964 101.575 182.393 101.535 181.76 101.587C181.128 101.64 180.571 101.774 180.091 101.99C179.609 102.201 179.239 102.486 178.979 102.845C178.719 103.203 178.609 103.633 178.651 104.133C178.693 104.638 178.872 105.051 179.188 105.371C179.505 105.687 179.918 105.912 180.427 106.045C180.937 106.174 181.508 106.212 182.14 106.159C182.773 106.107 183.329 105.975 183.811 105.764C184.292 105.548 184.662 105.259 184.922 104.895C185.176 104.527 185.282 104.091 185.24 103.586Z" fill="white"/>
<path d="M174.994 83.8264L176.025 86.4027C175.816 86.522 175.645 86.6855 175.514 86.8934C175.379 87.1027 175.298 87.3465 175.27 87.625C175.237 87.9004 175.275 88.2044 175.385 88.5371C175.532 88.9821 175.75 89.3263 176.04 89.5695C176.326 89.8143 176.624 89.8853 176.934 89.7828C177.181 89.701 177.357 89.533 177.463 89.2787C177.568 89.0244 177.593 88.6396 177.537 88.1244L177.295 86.125C177.169 85.0496 177.253 84.1889 177.548 83.5427C177.843 82.8966 178.364 82.4502 179.11 82.2034C179.789 81.9789 180.451 81.982 181.095 82.2126C181.739 82.4387 182.319 82.8503 182.835 83.4475C183.346 84.0416 183.75 84.7882 184.047 85.6873C184.501 87.0584 184.577 88.2452 184.275 89.2476C183.967 90.2471 183.342 90.9801 182.399 91.4465L181.316 88.6702C181.706 88.4465 181.957 88.1342 182.068 87.7331C182.176 87.3336 182.144 86.8776 181.975 86.3651C181.808 85.8617 181.578 85.489 181.284 85.2473C180.983 85.0025 180.677 84.9292 180.366 85.0272C180.106 85.118 179.929 85.2987 179.834 85.5695C179.735 85.8418 179.714 86.2176 179.773 86.6968L180.009 88.6087C180.141 89.687 180.04 90.556 179.704 91.2155C179.367 91.8705 178.812 92.3259 178.039 92.5816C177.374 92.8016 176.741 92.8113 176.141 92.6108C175.54 92.4057 175 92.0181 174.522 91.448C174.043 90.8734 173.657 90.1433 173.364 89.2577C172.931 87.9496 172.867 86.8287 173.172 85.8951C173.475 84.957 174.082 84.2675 174.994 83.8264Z" fill="white"/>
</svg>
