<svg fill="#494949" width="850px" height="300px" viewBox="0 0 12 12" id="icon" xmlns="http://www.w3.org/2000/svg" version="1.1" xmlns:xlink="http://www.w3.org/1999/xlink"><defs><style>.cls-1{fill:none;}</style></defs><title>no-image</title><path d="M11.25 1.28 10.72 0.75 0.75 10.72 1.28 11.25l0.75 -0.75H9.75a0.751 0.751 0 0 0 0.75 -0.75V2.03ZM9.75 9.75H2.78l2.922 -2.922 0.892 0.892a0.75 0.75 0 0 0 1.06 0L8.25 7.125l1.5 1.499Zm0 -2.187 -0.97 -0.97a0.75 0.75 0 0 0 -1.06 0L7.125 7.188l-0.891 -0.891L9.75 2.78Z"></path><path d="M2.25 8.25v-1.125l1.875 -1.874 0.515 0.515 0.531 -0.531 -0.516 -0.516a0.75 0.75 0 0 0 -1.06 0L2.25 6.065V2.25h6V1.5H2.25a0.751 0.751 0 0 0 -0.75 0.75v6Z"></path><path id="_Transparent_Rectangle_" data-name="&amp;lt;Transparent Rectangle&amp;gt;" class="cls-1" width="32" height="32" d="M0 0H12V12H0V0z"></path></svg>
