<svg width="40" height="40" viewBox="0 0 40 40" fill="none" xmlns="http://www.w3.org/2000/svg">
<path d="M28.3333 33.3333C27.85 33.3333 27.4 33.2333 27.0667 33.0833C25.8833 32.4667 25.05 31.6167 24.2167 29.1167C23.3667 26.5167 21.7667 25.3 20.2333 24.1167C18.9167 23.1 17.55 22.05 16.3667 19.9C15.4833 18.3 15 16.55 15 15C15 10.3333 18.6667 6.66666 23.3333 6.66666C28 6.66666 31.6667 10.3333 31.6667 15H35C35 8.44999 29.8833 3.33333 23.3333 3.33333C16.7833 3.33333 11.6667 8.44999 11.6667 15C11.6667 17.1 12.3 19.4167 13.45 21.5C14.9667 24.25 16.75 25.6333 18.2 26.75C19.55 27.7833 20.5167 28.5333 21.05 30.1667C22.05 33.2 23.3333 34.9 25.6 36.0833C26.45 36.4667 27.3833 36.6667 28.3333 36.6667C32.0167 36.6667 35 33.6833 35 30H31.6667C31.6667 31.8333 30.1667 33.3333 28.3333 33.3333ZM12.7333 4.39999L10.3667 2.03333C7.05 5.34999 5 9.93333 5 15C5 20.0667 7.05 24.65 10.3667 27.9667L12.7167 25.6167C10.0167 22.9 8.33333 19.15 8.33333 15C8.33333 10.85 10.0167 7.09999 12.7333 4.39999ZM19.1667 15C19.1667 17.3 21.0333 19.1667 23.3333 19.1667C25.6333 19.1667 27.5 17.3 27.5 15C27.5 12.7 25.6333 10.8333 23.3333 10.8333C21.0333 10.8333 19.1667 12.7 19.1667 15Z" fill="black"/>
</svg>
