<svg viewBox="0 0 40 40" fill="black" xmlns="http://www.w3.org/2000/svg">
<path d="M34.1666 18.3333H31.6666V11.6667C31.6666 9.83332 30.1666 8.33332 28.3333 8.33332H21.6666V5.83332C21.6666 3.53332 19.8 1.66666 17.5 1.66666C15.2 1.66666 13.3333 3.53332 13.3333 5.83332V8.33332H6.66665C4.83331 8.33332 3.34998 9.83332 3.34998 11.6667V18H5.83331C8.31665 18 10.3333 20.0167 10.3333 22.5C10.3333 24.9833 8.31665 27 5.83331 27H3.33331V33.3333C3.33331 35.1667 4.83331 36.6667 6.66665 36.6667H13V34.1667C13 31.6833 15.0166 29.6667 17.5 29.6667C19.9833 29.6667 22 31.6833 22 34.1667V36.6667H28.3333C30.1666 36.6667 31.6666 35.1667 31.6666 33.3333V26.6667H34.1666C36.4666 26.6667 38.3333 24.8 38.3333 22.5C38.3333 20.2 36.4666 18.3333 34.1666 18.3333Z" />
</svg>
