<svg viewBox="0 0 40 40" fill="black" xmlns="http://www.w3.org/2000/svg">
<path d="M20 10C21.841 10 23.3334 8.50763 23.3334 6.66668C23.3334 4.82573 21.841 3.33334 20 3.33334C18.1591 3.33334 16.6667 4.82573 16.6667 6.66668C16.6667 8.50763 18.1591 10 20 10Z" />
<path d="M31.6666 21.6667V18.3333C29.1 18.3667 26.5166 17.0833 24.8833 15.2833L22.7333 12.9C22.45 12.5833 22.1 12.3333 21.7166 12.15C21.7 12.15 21.7 12.1333 21.6833 12.1333H21.6666C21.0833 11.8 20.4166 11.6333 19.6833 11.7C17.9333 11.85 16.6666 13.4 16.6666 15.15V25C16.6666 26.8333 18.1666 28.3333 20 28.3333H28.3333V36.6667H31.6666V27.5C31.6666 25.6667 30.1666 24.1667 28.3333 24.1667H23.3333V18.4167C25.4833 20.2 28.75 21.65 31.6666 21.6667ZM21.3833 30C20.7 31.9333 18.85 33.3333 16.6666 33.3333C13.9 33.3333 11.6666 31.1 11.6666 28.3333C11.6666 26.15 13.0666 24.3167 15 23.6167V20.1667C11.2 20.9333 8.33331 24.3 8.33331 28.3333C8.33331 32.9333 12.0666 36.6667 16.6666 36.6667C20.7 36.6667 24.0666 33.8 24.8333 30H21.3833Z" />
</svg>
