<svg width="40" height="40" viewBox="0 0 40 40" fill="black" xmlns="http://www.w3.org/2000/svg">
<path d="M20.8333 10.8333C22.6743 10.8333 24.1667 9.34094 24.1667 7.49999C24.1667 5.65904 22.6743 4.16666 20.8333 4.16666C18.9924 4.16666 17.5 5.65904 17.5 7.49999C17.5 9.34094 18.9924 10.8333 20.8333 10.8333Z" />
<path d="M32.95 29.5333L31.8833 18.9167C31.7666 17.6333 30.6833 16.6667 29.4 16.6667H26.6666C24.1666 16.6333 21.9 15.7667 20.4 14.2667L17.0666 10.9667C16.8 10.7 16.0333 10 14.7166 10C13.8666 10 13.0166 10.3333 12.3666 10.9833L6.79998 16.5167C5.91665 17.65 5.94998 19.1333 6.44998 20.0667L8.83331 24.7333L3.58331 31.4833L6.19998 33.55L12.3333 25.6667L12.05 23.4L13.3333 24.5833V33.3333H16.6666V23.1333L13.1333 19.6L17.0666 15.6667C18.6333 17.2333 19.9333 18.7 23.05 19.5333L21.6666 33.3333H24.1666L24.85 27.5H30.15L30.3833 29.5333C29.65 29.9667 29.1666 30.7667 29.1666 31.6667C29.1666 33.05 30.2833 34.1667 31.6666 34.1667C33.05 34.1667 34.1666 33.05 34.1666 31.6667C34.1666 30.7667 33.6833 29.9667 32.95 29.5333ZM25.15 25L25.8333 19.1667H29.1666L29.85 25H25.15Z" />
</svg>
