<svg viewBox="0 0 40 40" fill="black" xmlns="http://www.w3.org/2000/svg">
<path d="M19.1666 9.16667C21.0076 9.16667 22.5 7.67428 22.5 5.83333C22.5 3.99238 21.0076 2.5 19.1666 2.5C17.3257 2.5 15.8333 3.99238 15.8333 5.83333C15.8333 7.67428 17.3257 9.16667 19.1666 9.16667Z" />
<path d="M20.2167 11.8667C19.9334 11.2833 19.4834 10.7833 18.8834 10.45C17.8667 9.85 16.65 9.88333 15.6667 10.4V10.3833L6.66669 15.5V23.3333H10V17.4333L12.5 16.0167C11.9667 17.85 11.6667 19.75 11.6667 21.6667V30.55L7.33335 36.3333L10 38.3333L15 31.6667L15.3667 25.7667L18.3334 30V38.3333H21.6667V27.5L18.3834 22.8167C18.3167 21.95 18.15 19.8833 19.1334 17.15C20.3834 19.05 22.2667 20.45 24.4667 21.1667L34.3834 38.3333L35.8334 37.5L26.7 21.6667H28.3334V18.3333C27.5167 18.3333 23.5334 18.6167 21.5334 14.65" />
</svg>
